<svg width="54" height="50" viewBox="0 0 54 50" fill="none" xmlns="http://www.w3.org/2000/svg">
<g clip-path="url(#clip0_20_28)">
<path d="M36.5 13.5H33.3333C33.3333 10.0009 30.4991 7.16669 27 7.16669C23.5008 7.16669 20.6666 10.0009 20.6666 13.5H17.5C15.7583 13.5 14.3333 14.925 14.3333 16.6667V35.6667C14.3333 37.4084 15.7583 38.8334 17.5 38.8334H36.5C38.2416 38.8334 39.6666 37.4084 39.6666 35.6667V16.6667C39.6666 14.925 38.2416 13.5 36.5 13.5ZM27 10.3334C28.7416 10.3334 30.1666 11.7584 30.1666 13.5H23.8333C23.8333 11.7584 25.2583 10.3334 27 10.3334ZM36.5 35.6667H17.5V16.6667H20.6666V19.8334C20.6666 20.7042 21.3791 21.4167 22.25 21.4167C23.1208 21.4167 23.8333 20.7042 23.8333 19.8334V16.6667H30.1666V19.8334C30.1666 20.7042 30.8791 21.4167 31.75 21.4167C32.6208 21.4167 33.3333 20.7042 33.3333 19.8334V16.6667H36.5V35.6667Z" fill="#002F52"/>
</g>
<defs>
<clipPath id="clip0_20_28">
<rect width="38" height="38" fill="white" transform="translate(8 4)"/>
</clipPath>
</defs>
</svg>
