<svg width="48" height="48" viewBox="0 0 48 48" fill="none" xmlns="http://www.w3.org/2000/svg">
<g clip-path="url(#clip0_19_314)">
<path d="M32 16H29.3333C29.3333 13.0533 26.9466 10.6667 24 10.6667C21.0533 10.6667 18.6666 13.0533 18.6666 16H16C14.5333 16 13.3333 17.2 13.3333 18.6667V34.6667C13.3333 36.1333 14.5333 37.3333 16 37.3333H32C33.4666 37.3333 34.6666 36.1333 34.6666 34.6667V18.6667C34.6666 17.2 33.4666 16 32 16ZM24 13.3333C25.4666 13.3333 26.6666 14.5333 26.6666 16H21.3333C21.3333 14.5333 22.5333 13.3333 24 13.3333ZM32 34.6667H16V18.6667H18.6666V21.3333C18.6666 22.0667 19.2666 22.6667 20 22.6667C20.7333 22.6667 21.3333 22.0667 21.3333 21.3333V18.6667H26.6666V21.3333C26.6666 22.0667 27.2666 22.6667 28 22.6667C28.7333 22.6667 29.3333 22.0667 29.3333 21.3333V18.6667H32V34.6667Z" fill="#002F52"/>
</g>
<defs>
<clipPath id="clip0_19_314">
<rect width="32" height="32" fill="white" transform="translate(8 8)"/>
</clipPath>
</defs>
</svg>
