<svg width="51" height="48" viewBox="0 0 51 48" fill="none" xmlns="http://www.w3.org/2000/svg">
<path d="M33.4087 8C30.3744 8 27.4621 9.41253 25.5613 11.6447C23.6605 9.41253 20.7482 8 17.7139 8C12.3428 8 8.12262 12.2202 8.12262 17.5913C8.12262 24.1831 14.0518 29.5542 23.0327 37.7155L25.5613 40L28.0899 37.6981C37.0708 29.5542 43 24.1831 43 17.5913C43 12.2202 38.7798 8 33.4087 8ZM25.7357 35.1172L25.5613 35.2916L25.3869 35.1172C17.0861 27.6011 11.6104 22.6311 11.6104 17.5913C11.6104 14.1035 14.2262 11.4877 17.7139 11.4877C20.3995 11.4877 23.0153 13.2142 23.9395 15.6033H27.2005C28.1074 13.2142 30.7232 11.4877 33.4087 11.4877C36.8965 11.4877 39.5123 14.1035 39.5123 17.5913C39.5123 22.6311 34.0365 27.6011 25.7357 35.1172Z" fill="url(#paint0_linear_20_26)"/>
<defs>
<linearGradient id="paint0_linear_20_26" x1="22.6952" y1="4.15999" x2="72.9449" y2="11.4119" gradientUnits="userSpaceOnUse">
<stop stop-color="#002F52"/>
<stop offset="1" stop-color="#326589"/>
</linearGradient>
</defs>
</svg>
